<?xml version="1.0" encoding="UTF-8" standalone="no"?>
<!DOCTYPE svg PUBLIC "-//W3C//DTD SVG 1.1//EN"
 "http://www.w3.org/Graphics/SVG/1.1/DTD/svg11.dtd">
<!-- Generated by graphviz version 2.50.0 (20211204.2007)
 -->
<!-- Title: controllers_diagram Pages: 1 -->
<svg width="800pt" height="626pt"
 viewBox="0.00 0.00 799.69 626.00" xmlns="http://www.w3.org/2000/svg" xmlns:xlink="http://www.w3.org/1999/xlink">
<g id="graph0" class="graph" transform="scale(1 1) rotate(0) translate(4 622)">
<title>controllers_diagram</title>
<polygon fill="transparent" stroke="transparent" points="-4,4 -4,-622 795.69,-622 795.69,4 -4,4"/>
<!-- _diagram_info -->
<g id="node1" class="node">
<title>_diagram_info</title>
<text text-anchor="start" x="278" y="-603.6" font-family="Times,serif" font-size="13.00">Controllers diagram</text>
<text text-anchor="start" x="278" y="-589.6" font-family="Times,serif" font-size="13.00">Date: Mar 03 2022 &#45; 13:51</text>
<text text-anchor="start" x="278" y="-575.6" font-family="Times,serif" font-size="13.00">Migration version: 20220302201932</text>
<text text-anchor="start" x="278" y="-561.6" font-family="Times,serif" font-size="13.00">Generated by RailRoady 1.6.0</text>
<text text-anchor="start" x="278" y="-547.6" font-family="Times,serif" font-size="13.00">http://railroady.prestonlee.com</text>
</g>
<!-- ApplicationController -->
<g id="node2" class="node">
<title>ApplicationController</title>
<path fill="none" stroke="black" d="M216.39,-355.45C216.39,-355.45 328.39,-355.45 328.39,-355.45 334.39,-355.45 340.39,-361.45 340.39,-367.45 340.39,-367.45 340.39,-437.45 340.39,-437.45 340.39,-443.45 334.39,-449.45 328.39,-449.45 328.39,-449.45 216.39,-449.45 216.39,-449.45 210.39,-449.45 204.39,-443.45 204.39,-437.45 204.39,-437.45 204.39,-367.45 204.39,-367.45 204.39,-361.45 210.39,-355.45 216.39,-355.45"/>
<text text-anchor="middle" x="272.39" y="-434.25" font-family="Times,serif" font-size="14.00">ApplicationController</text>
<polyline fill="none" stroke="black" points="204.39,-426.45 340.39,-426.45 "/>
<polyline fill="none" stroke="black" points="204.39,-402.45 340.39,-402.45 "/>
<polyline fill="none" stroke="black" points="204.39,-378.45 340.39,-378.45 "/>
<text text-anchor="start" x="212.39" y="-363.25" font-family="Times,serif" font-size="14.00">not_found</text>
</g>
<!-- Companies::BaseController -->
<g id="node3" class="node">
<title>Companies::BaseController</title>
<path fill="none" stroke="black" d="M421.67,-271.53C421.67,-271.53 564.67,-271.53 564.67,-271.53 570.67,-271.53 576.67,-277.53 576.67,-283.53 576.67,-283.53 576.67,-353.53 576.67,-353.53 576.67,-359.53 570.67,-365.53 564.67,-365.53 564.67,-365.53 421.67,-365.53 421.67,-365.53 415.67,-365.53 409.67,-359.53 409.67,-353.53 409.67,-353.53 409.67,-283.53 409.67,-283.53 409.67,-277.53 415.67,-271.53 421.67,-271.53"/>
<text text-anchor="middle" x="493.17" y="-350.33" font-family="Times,serif" font-size="14.00">Companies::BaseController</text>
<polyline fill="none" stroke="black" points="409.67,-342.53 576.67,-342.53 "/>
<polyline fill="none" stroke="black" points="409.67,-318.53 576.67,-318.53 "/>
<polyline fill="none" stroke="black" points="409.67,-294.53 576.67,-294.53 "/>
<text text-anchor="start" x="417.67" y="-279.33" font-family="Times,serif" font-size="14.00">set_company</text>
</g>
<!-- ApplicationController&#45;&gt;Companies::BaseController -->
<g id="edge1" class="edge">
<title>ApplicationController&#45;&gt;Companies::BaseController</title>
<path fill="none" stroke="black" d="M340.44,-376.58C362.23,-368.3 386.62,-359.03 409.4,-350.37"/>
</g>
<!-- CompaniesController -->
<g id="node6" class="node">
<title>CompaniesController</title>
<path fill="none" stroke="black" d="M12,-410.94C12,-410.94 122,-410.94 122,-410.94 128,-410.94 134,-416.94 134,-422.94 134,-422.94 134,-566.94 134,-566.94 134,-572.94 128,-578.94 122,-578.94 122,-578.94 12,-578.94 12,-578.94 6,-578.94 0,-572.94 0,-566.94 0,-566.94 0,-422.94 0,-422.94 0,-416.94 6,-410.94 12,-410.94"/>
<text text-anchor="middle" x="67" y="-563.74" font-family="Times,serif" font-size="14.00">CompaniesController</text>
<polyline fill="none" stroke="black" points="0,-555.94 134,-555.94 "/>
<text text-anchor="start" x="8" y="-540.74" font-family="Times,serif" font-size="14.00">create</text>
<text text-anchor="start" x="8" y="-525.74" font-family="Times,serif" font-size="14.00">destroy</text>
<text text-anchor="start" x="8" y="-510.74" font-family="Times,serif" font-size="14.00">index</text>
<text text-anchor="start" x="8" y="-495.74" font-family="Times,serif" font-size="14.00">show</text>
<text text-anchor="start" x="8" y="-480.74" font-family="Times,serif" font-size="14.00">update</text>
<polyline fill="none" stroke="black" points="0,-472.94 134,-472.94 "/>
<polyline fill="none" stroke="black" points="0,-448.94 134,-448.94 "/>
<text text-anchor="start" x="8" y="-433.74" font-family="Times,serif" font-size="14.00">company_params</text>
<text text-anchor="start" x="8" y="-418.74" font-family="Times,serif" font-size="14.00">set_company</text>
</g>
<!-- ApplicationController&#45;&gt;CompaniesController -->
<g id="edge4" class="edge">
<title>ApplicationController&#45;&gt;CompaniesController</title>
<path fill="none" stroke="black" d="M204.29,-433.12C181.75,-443.27 156.69,-454.55 134.22,-464.67"/>
</g>
<!-- Companies::EmployeesController -->
<g id="node4" class="node">
<title>Companies::EmployeesController</title>
<path fill="none" stroke="black" d="M453.52,-0.5C453.52,-0.5 631.52,-0.5 631.52,-0.5 637.52,-0.5 643.52,-6.5 643.52,-12.5 643.52,-12.5 643.52,-156.5 643.52,-156.5 643.52,-162.5 637.52,-168.5 631.52,-168.5 631.52,-168.5 453.52,-168.5 453.52,-168.5 447.52,-168.5 441.52,-162.5 441.52,-156.5 441.52,-156.5 441.52,-12.5 441.52,-12.5 441.52,-6.5 447.52,-0.5 453.52,-0.5"/>
<text text-anchor="middle" x="542.52" y="-153.3" font-family="Times,serif" font-size="14.00">Companies::EmployeesController</text>
<polyline fill="none" stroke="black" points="441.52,-145.5 643.52,-145.5 "/>
<text text-anchor="start" x="449.52" y="-130.3" font-family="Times,serif" font-size="14.00">create</text>
<text text-anchor="start" x="449.52" y="-115.3" font-family="Times,serif" font-size="14.00">destroy</text>
<text text-anchor="start" x="449.52" y="-100.3" font-family="Times,serif" font-size="14.00">index</text>
<text text-anchor="start" x="449.52" y="-85.3" font-family="Times,serif" font-size="14.00">show</text>
<text text-anchor="start" x="449.52" y="-70.3" font-family="Times,serif" font-size="14.00">update</text>
<polyline fill="none" stroke="black" points="441.52,-62.5 643.52,-62.5 "/>
<polyline fill="none" stroke="black" points="441.52,-38.5 643.52,-38.5 "/>
<text text-anchor="start" x="449.52" y="-23.3" font-family="Times,serif" font-size="14.00">employee_params</text>
<text text-anchor="start" x="449.52" y="-8.3" font-family="Times,serif" font-size="14.00">set_employee</text>
</g>
<!-- Companies::BaseController&#45;&gt;Companies::EmployeesController -->
<g id="edge2" class="edge">
<title>Companies::BaseController&#45;&gt;Companies::EmployeesController</title>
<path fill="none" stroke="black" d="M503.1,-271.45C509.29,-242.08 517.44,-203.44 524.72,-168.91"/>
</g>
<!-- Companies::OccupationsController -->
<g id="node5" class="node">
<title>Companies::OccupationsController</title>
<path fill="none" stroke="black" d="M594.69,-374.54C594.69,-374.54 779.69,-374.54 779.69,-374.54 785.69,-374.54 791.69,-380.54 791.69,-386.54 791.69,-386.54 791.69,-530.54 791.69,-530.54 791.69,-536.54 785.69,-542.54 779.69,-542.54 779.69,-542.54 594.69,-542.54 594.69,-542.54 588.69,-542.54 582.69,-536.54 582.69,-530.54 582.69,-530.54 582.69,-386.54 582.69,-386.54 582.69,-380.54 588.69,-374.54 594.69,-374.54"/>
<text text-anchor="middle" x="687.19" y="-527.34" font-family="Times,serif" font-size="14.00">Companies::OccupationsController</text>
<polyline fill="none" stroke="black" points="582.69,-519.54 791.69,-519.54 "/>
<text text-anchor="start" x="590.69" y="-504.34" font-family="Times,serif" font-size="14.00">create</text>
<text text-anchor="start" x="590.69" y="-489.34" font-family="Times,serif" font-size="14.00">destroy</text>
<text text-anchor="start" x="590.69" y="-474.34" font-family="Times,serif" font-size="14.00">index</text>
<text text-anchor="start" x="590.69" y="-459.34" font-family="Times,serif" font-size="14.00">show</text>
<text text-anchor="start" x="590.69" y="-444.34" font-family="Times,serif" font-size="14.00">update</text>
<polyline fill="none" stroke="black" points="582.69,-436.54 791.69,-436.54 "/>
<polyline fill="none" stroke="black" points="582.69,-412.54 791.69,-412.54 "/>
<text text-anchor="start" x="590.69" y="-397.34" font-family="Times,serif" font-size="14.00">occupation_params</text>
<text text-anchor="start" x="590.69" y="-382.34" font-family="Times,serif" font-size="14.00">set_occupation</text>
</g>
<!-- Companies::BaseController&#45;&gt;Companies::OccupationsController -->
<g id="edge3" class="edge">
<title>Companies::BaseController&#45;&gt;Companies::OccupationsController</title>
<path fill="none" stroke="black" d="M558.32,-365.54C566.13,-371.18 574.26,-377.04 582.46,-382.96"/>
</g>
</g>
</svg>
