<?xml version="1.0" encoding="UTF-8" standalone="no"?>
<!DOCTYPE svg PUBLIC "-//W3C//DTD SVG 1.1//EN"
 "http://www.w3.org/Graphics/SVG/1.1/DTD/svg11.dtd">
<!-- Generated by graphviz version 2.50.0 (20211204.2007)
 -->
<!-- Title: models_diagram Pages: 1 -->
<svg width="394pt" height="302pt"
 viewBox="0.00 0.00 394.34 302.00" xmlns="http://www.w3.org/2000/svg" xmlns:xlink="http://www.w3.org/1999/xlink">
<g id="graph0" class="graph" transform="scale(1 1) rotate(0) translate(4 298)">
<title>models_diagram</title>
<polygon fill="transparent" stroke="transparent" points="-4,4 -4,-298 390.34,-298 390.34,4 -4,4"/>
<!-- _diagram_info -->
<g id="node1" class="node">
<title>_diagram_info</title>
<text text-anchor="start" x="8" y="-279.6" font-family="Times,serif" font-size="13.00">Models diagram</text>
<text text-anchor="start" x="8" y="-265.6" font-family="Times,serif" font-size="13.00">Date: Mar 03 2022 &#45; 13:51</text>
<text text-anchor="start" x="8" y="-251.6" font-family="Times,serif" font-size="13.00">Migration version: 20220302201932</text>
<text text-anchor="start" x="8" y="-237.6" font-family="Times,serif" font-size="13.00">Generated by RailRoady 1.6.0</text>
<text text-anchor="start" x="8" y="-223.6" font-family="Times,serif" font-size="13.00">http://railroady.prestonlee.com</text>
</g>
<!-- ApplicationRecord -->
<g id="node2" class="node">
<title>ApplicationRecord</title>
<ellipse fill="none" stroke="black" cx="309" cy="-255" rx="77.19" ry="18"/>
<text text-anchor="middle" x="309" y="-251.3" font-family="Times,serif" font-size="14.00">ApplicationRecord</text>
</g>
<!-- Company -->
<g id="node3" class="node">
<title>Company</title>
<ellipse fill="none" stroke="black" cx="309" cy="-162" rx="45.49" ry="18"/>
<text text-anchor="middle" x="309" y="-158.3" font-family="Times,serif" font-size="14.00">Company</text>
</g>
<!-- ApplicationRecord&#45;&gt;Company -->
<g id="edge3" class="edge">
<title>ApplicationRecord&#45;&gt;Company</title>
<path fill="none" stroke="black" d="M309,-236.88C309,-220.61 309,-196.28 309,-180.04"/>
</g>
<!-- Employee -->
<g id="node4" class="node">
<title>Employee</title>
<ellipse fill="none" stroke="black" cx="253" cy="-90" rx="46.59" ry="18"/>
<text text-anchor="middle" x="253" y="-86.3" font-family="Times,serif" font-size="14.00">Employee</text>
</g>
<!-- ApplicationRecord&#45;&gt;Employee -->
<g id="edge5" class="edge">
<title>ApplicationRecord&#45;&gt;Employee</title>
<path fill="none" stroke="black" d="M292.04,-237.22C279.19,-223.26 262.5,-202.14 255,-180 246.92,-156.14 248.32,-126.58 250.4,-108.26"/>
</g>
<!-- Occupation -->
<g id="node5" class="node">
<title>Occupation</title>
<ellipse fill="none" stroke="black" cx="328" cy="-18" rx="51.19" ry="18"/>
<text text-anchor="middle" x="328" y="-14.3" font-family="Times,serif" font-size="14.00">Occupation</text>
</g>
<!-- ApplicationRecord&#45;&gt;Occupation -->
<g id="edge6" class="edge">
<title>ApplicationRecord&#45;&gt;Occupation</title>
<path fill="none" stroke="black" d="M326.09,-237.27C339.02,-223.33 355.75,-202.23 363,-180 379.76,-128.6 352.7,-65.34 337.38,-35.75"/>
</g>
<!-- Company&#45;&gt;Employee -->
<g id="edge2" class="edge">
<title>Company&#45;&gt;Employee</title>
<path fill="none" stroke="#29511b" d="M289.3,-136.37C283.91,-129.64 278.07,-122.34 272.69,-115.61"/>
<polygon fill="#29511b" stroke="#29511b" points="289.48,-136.6 292.21,-147.22 292.61,-140.51 295.73,-144.41 295.73,-144.41 295.73,-144.41 292.61,-140.51 299.24,-141.6 289.48,-136.6 289.48,-136.6"/>
<polygon fill="#29511b" stroke="#29511b" points="272.42,-115.28 269.69,-104.66 269.3,-111.37 266.18,-107.47 266.18,-107.47 266.18,-107.47 269.3,-111.37 262.66,-110.28 272.42,-115.28 272.42,-115.28"/>
</g>
<!-- Company&#45;&gt;Occupation -->
<g id="edge1" class="edge">
<title>Company&#45;&gt;Occupation</title>
<path fill="none" stroke="#f62395" d="M312.66,-133.68C316.03,-108.49 321,-71.3 324.37,-46.16"/>
<polygon fill="#f62395" stroke="#f62395" points="312.62,-133.96 306.83,-143.27 311.95,-138.92 311.29,-143.87 311.29,-143.87 311.29,-143.87 311.95,-138.92 315.75,-144.47 312.62,-133.96 312.62,-133.96"/>
<polygon fill="#f62395" stroke="#f62395" points="324.37,-46.1 330.16,-36.79 325.04,-41.15 325.7,-36.19 325.7,-36.19 325.7,-36.19 325.04,-41.15 321.24,-35.59 324.37,-46.1 324.37,-46.1"/>
</g>
<!-- Employee&#45;&gt;Occupation -->
<g id="edge4" class="edge">
<title>Employee&#45;&gt;Occupation</title>
<path fill="none" stroke="#4da780" d="M277.57,-66.06C285.81,-58.38 294.98,-49.82 303.23,-42.12"/>
<polygon fill="#4da780" stroke="#4da780" points="277.33,-66.29 266.95,-69.83 273.67,-69.7 270.02,-73.12 270.02,-73.12 270.02,-73.12 273.67,-69.7 273.09,-76.41 277.33,-66.29 277.33,-66.29"/>
<polygon fill="#4da780" stroke="#4da780" points="303.48,-41.89 313.86,-38.35 307.13,-38.48 310.79,-35.06 310.79,-35.06 310.79,-35.06 307.13,-38.48 307.72,-31.77 303.48,-41.89 303.48,-41.89"/>
</g>
</g>
</svg>
