<?xml version="1.0" encoding="UTF-8" standalone="no"?>
<!DOCTYPE svg PUBLIC "-//W3C//DTD SVG 1.1//EN"
 "http://www.w3.org/Graphics/SVG/1.1/DTD/svg11.dtd">
<!-- Generated by graphviz version 2.50.0 (20211204.2007)
 -->
<!-- Title: models_diagram Pages: 1 -->
<svg width="507pt" height="650pt"
 viewBox="0.00 0.00 507.00 650.00" xmlns="http://www.w3.org/2000/svg" xmlns:xlink="http://www.w3.org/1999/xlink">
<g id="graph0" class="graph" transform="scale(1 1) rotate(0) translate(4 646)">
<title>models_diagram</title>
<polygon fill="transparent" stroke="transparent" points="-4,4 -4,-646 503,-646 503,4 -4,4"/>
<!-- _diagram_info -->
<g id="node1" class="node">
<title>_diagram_info</title>
<text text-anchor="start" x="8" y="-627.6" font-family="Times,serif" font-size="13.00">Models diagram</text>
<text text-anchor="start" x="8" y="-613.6" font-family="Times,serif" font-size="13.00">Date: Mar 03 2022 &#45; 13:51</text>
<text text-anchor="start" x="8" y="-599.6" font-family="Times,serif" font-size="13.00">Migration version: 20220302201932</text>
<text text-anchor="start" x="8" y="-585.6" font-family="Times,serif" font-size="13.00">Generated by RailRoady 1.6.0</text>
<text text-anchor="start" x="8" y="-571.6" font-family="Times,serif" font-size="13.00">http://railroady.prestonlee.com</text>
</g>
<!-- ApplicationRecord -->
<g id="node2" class="node">
<title>ApplicationRecord</title>
<ellipse fill="none" stroke="black" cx="309" cy="-603" rx="77.19" ry="18"/>
<text text-anchor="middle" x="309" y="-599.3" font-family="Times,serif" font-size="14.00">ApplicationRecord</text>
</g>
<!-- Company -->
<g id="node3" class="node">
<title>Company</title>
<path fill="none" stroke="black" d="M191,-406.5C191,-406.5 427,-406.5 427,-406.5 433,-406.5 439,-412.5 439,-418.5 439,-418.5 439,-515.5 439,-515.5 439,-521.5 433,-527.5 427,-527.5 427,-527.5 191,-527.5 191,-527.5 185,-527.5 179,-521.5 179,-515.5 179,-515.5 179,-418.5 179,-418.5 179,-412.5 185,-406.5 191,-406.5"/>
<text text-anchor="middle" x="309" y="-512.3" font-family="Times,serif" font-size="14.00">Company</text>
<polyline fill="none" stroke="black" points="179,-504.5 439,-504.5 "/>
<text text-anchor="start" x="187" y="-489.3" font-family="Times,serif" font-size="14.00">id :uuid</text>
<text text-anchor="start" x="187" y="-474.3" font-family="Times,serif" font-size="14.00">name :character varying</text>
<text text-anchor="start" x="187" y="-459.3" font-family="Times,serif" font-size="14.00">cnpj :character varying</text>
<text text-anchor="start" x="187" y="-444.3" font-family="Times,serif" font-size="14.00">email :character varying</text>
<text text-anchor="start" x="187" y="-429.3" font-family="Times,serif" font-size="14.00">created_at :timestamp(6) without time zone</text>
<text text-anchor="start" x="187" y="-414.3" font-family="Times,serif" font-size="14.00">updated_at :timestamp(6) without time zone</text>
</g>
<!-- ApplicationRecord&#45;&gt;Company -->
<g id="edge3" class="edge">
<title>ApplicationRecord&#45;&gt;Company</title>
<path fill="none" stroke="black" d="M309,-584.76C309,-570.19 309,-548.45 309,-527.66"/>
</g>
<!-- Employee -->
<g id="node4" class="node">
<title>Employee</title>
<path fill="none" stroke="black" d="M93,-158.5C93,-158.5 329,-158.5 329,-158.5 335,-158.5 341,-164.5 341,-170.5 341,-170.5 341,-357.5 341,-357.5 341,-363.5 335,-369.5 329,-369.5 329,-369.5 93,-369.5 93,-369.5 87,-369.5 81,-363.5 81,-357.5 81,-357.5 81,-170.5 81,-170.5 81,-164.5 87,-158.5 93,-158.5"/>
<text text-anchor="middle" x="211" y="-354.3" font-family="Times,serif" font-size="14.00">Employee</text>
<polyline fill="none" stroke="black" points="81,-346.5 341,-346.5 "/>
<text text-anchor="start" x="89" y="-331.3" font-family="Times,serif" font-size="14.00">updated_at :timestamp(6) without time zone</text>
<text text-anchor="start" x="89" y="-316.3" font-family="Times,serif" font-size="14.00">company_id :uuid</text>
<text text-anchor="start" x="89" y="-301.3" font-family="Times,serif" font-size="14.00">occupation_id :uuid</text>
<text text-anchor="start" x="89" y="-286.3" font-family="Times,serif" font-size="14.00">name :character varying</text>
<text text-anchor="start" x="89" y="-271.3" font-family="Times,serif" font-size="14.00">cpf :character varying</text>
<text text-anchor="start" x="89" y="-256.3" font-family="Times,serif" font-size="14.00">email :character varying</text>
<text text-anchor="start" x="89" y="-241.3" font-family="Times,serif" font-size="14.00">phone_number :character varying</text>
<text text-anchor="start" x="89" y="-226.3" font-family="Times,serif" font-size="14.00">start_date :date</text>
<text text-anchor="start" x="89" y="-211.3" font-family="Times,serif" font-size="14.00">end_date :date</text>
<text text-anchor="start" x="89" y="-196.3" font-family="Times,serif" font-size="14.00">montly_salary :numeric(10,2)</text>
<text text-anchor="start" x="89" y="-181.3" font-family="Times,serif" font-size="14.00">created_at :timestamp(6) without time zone</text>
<text text-anchor="start" x="89" y="-166.3" font-family="Times,serif" font-size="14.00">id :uuid</text>
</g>
<!-- ApplicationRecord&#45;&gt;Employee -->
<g id="edge5" class="edge">
<title>ApplicationRecord&#45;&gt;Employee</title>
<path fill="none" stroke="black" d="M275.88,-586.58C236.72,-568.02 176.05,-538.08 170,-528 141.63,-480.76 148.59,-420.46 164.12,-369.52"/>
</g>
<!-- Occupation -->
<g id="node5" class="node">
<title>Occupation</title>
<path fill="none" stroke="black" d="M251,-0.5C251,-0.5 487,-0.5 487,-0.5 493,-0.5 499,-6.5 499,-12.5 499,-12.5 499,-109.5 499,-109.5 499,-115.5 493,-121.5 487,-121.5 487,-121.5 251,-121.5 251,-121.5 245,-121.5 239,-115.5 239,-109.5 239,-109.5 239,-12.5 239,-12.5 239,-6.5 245,-0.5 251,-0.5"/>
<text text-anchor="middle" x="369" y="-106.3" font-family="Times,serif" font-size="14.00">Occupation</text>
<polyline fill="none" stroke="black" points="239,-98.5 499,-98.5 "/>
<text text-anchor="start" x="247" y="-83.3" font-family="Times,serif" font-size="14.00">id :uuid</text>
<text text-anchor="start" x="247" y="-68.3" font-family="Times,serif" font-size="14.00">name :character varying</text>
<text text-anchor="start" x="247" y="-53.3" font-family="Times,serif" font-size="14.00">active :boolean</text>
<text text-anchor="start" x="247" y="-38.3" font-family="Times,serif" font-size="14.00">company_id :uuid</text>
<text text-anchor="start" x="247" y="-23.3" font-family="Times,serif" font-size="14.00">created_at :timestamp(6) without time zone</text>
<text text-anchor="start" x="247" y="-8.3" font-family="Times,serif" font-size="14.00">updated_at :timestamp(6) without time zone</text>
</g>
<!-- ApplicationRecord&#45;&gt;Occupation -->
<g id="edge6" class="edge">
<title>ApplicationRecord&#45;&gt;Occupation</title>
<path fill="none" stroke="black" d="M359.72,-589.36C391.11,-578.63 428.93,-559.76 448,-528 525.62,-398.74 451.11,-214.95 402.87,-121.51"/>
</g>
<!-- Company&#45;&gt;Employee -->
<g id="edge2" class="edge">
<title>Company&#45;&gt;Employee</title>
<path fill="none" stroke="#748c33" d="M275.42,-397.13C272.51,-391.16 269.52,-385.03 266.5,-378.82"/>
<polygon fill="#748c33" stroke="#748c33" points="275.48,-397.25 275.82,-408.21 277.67,-401.74 279.86,-406.24 279.86,-406.24 279.86,-406.24 277.67,-401.74 283.91,-404.27 275.48,-397.25 275.48,-397.25"/>
<polygon fill="#748c33" stroke="#748c33" points="266.43,-378.69 266.09,-367.73 264.24,-374.19 262.05,-369.7 262.05,-369.7 262.05,-369.7 264.24,-374.19 258,-371.67 266.43,-378.69 266.43,-378.69"/>
</g>
<!-- Company&#45;&gt;Occupation -->
<g id="edge1" class="edge">
<title>Company&#45;&gt;Occupation</title>
<path fill="none" stroke="#72a32b" d="M341.8,-396.85C345.04,-387.96 347.9,-378.87 350,-370 368.98,-289.88 372.02,-194.95 371.42,-131.87"/>
<polygon fill="#72a32b" stroke="#72a32b" points="341.73,-397.04 333.96,-404.78 339.94,-401.71 338.16,-406.38 338.16,-406.38 338.16,-406.38 339.94,-401.71 342.36,-407.99 341.73,-397.04 341.73,-397.04"/>
<polygon fill="#72a32b" stroke="#72a32b" points="371.41,-131.63 375.78,-121.58 371.35,-126.63 371.28,-121.63 371.28,-121.63 371.28,-121.63 371.35,-126.63 366.78,-121.69 371.41,-131.63 371.41,-131.63"/>
</g>
<!-- Employee&#45;&gt;Occupation -->
<g id="edge4" class="edge">
<title>Employee&#45;&gt;Occupation</title>
<path fill="none" stroke="#f900b0" d="M299.49,-150.43C304.95,-143.48 310.35,-136.62 315.58,-129.96"/>
<polygon fill="#f900b0" stroke="#f900b0" points="299.42,-150.52 289.7,-155.6 296.33,-154.45 293.24,-158.38 293.24,-158.38 293.24,-158.38 296.33,-154.45 296.78,-161.16 299.42,-150.52 299.42,-150.52"/>
<polygon fill="#f900b0" stroke="#f900b0" points="315.93,-129.52 325.64,-124.44 319.02,-125.59 322.11,-121.66 322.11,-121.66 322.11,-121.66 319.02,-125.59 318.57,-118.88 315.93,-129.52 315.93,-129.52"/>
</g>
</g>
</svg>
